# xmcd
#
# Track frame offsets: 
#        150
#        21822
#        43332
#        61829
#        89561
#        108575
#        134663
#        154522
#        169257
#        193753
#        213566
#        227124
#        244439
#        263901
#        280959
#
# Disc length: 3942 seconds
#
# Revision: 0
# Processed by: cddbd v1.5.2PL0 Copyright (c) Steve Scherf et al.
# Submitted via: ExactAudioCopy v1.3
#
DISCID=e60f640f
DTITLE=Pinetop Perkins - How Long
DYEAR=2012
DGENRE=Blues
TTITLE0=Come Back Baby
TTITLE1=5-10-15 Hours (featuring Carolyn Wonderland)
TTITLE2=Back To The Chicken Shack
TTITLE3=Miss Ida B
TTITLE4=If You Love Me Like You Say (Featuring Gary Clark Jr.)
TTITLE5=Ladies Call Me Pinetop
TTITLE6=Got My Mojo Workin' (featuring Cindy Cashdollar on lap steel)
TTITLE7=Sugar Sweet (featuring Emily Gimble)
TTITLE8=How Long Blues
TTITLE9=Big Fat Mama
TTITLE10=Sittin' On Top Of The World (featuring Emily Gimble)
TTITLE11=Rhumba Man
TTITLE12=Do Unto Others (featuring Gary Clark Jr.)
TTITLE13=People Like That (featuring Emily Gimble)
TTITLE14=Pinetop's Last Blues
EXTD=
EXTT0=
EXTT1=
EXTT2=
EXTT3=
EXTT4=
EXTT5=
EXTT6=
EXTT7=
EXTT8=
EXTT9=
EXTT10=
EXTT11=
EXTT12=
EXTT13=
EXTT14=
PLAYORDER=
